<?xml version="1.0" encoding="UTF-8" standalone="no"?>
<svg width="8px" height="13px" viewBox="0 0 8 13" version="1.1" xmlns="http://www.w3.org/2000/svg" xmlns:xlink="http://www.w3.org/1999/xlink">
    <!-- Generator: sketchtool 40.3 (33839) - http://www.bohemiancoding.com/sketch -->
    <title>84CBA13B-A4E2-4408-A5AE-6DDE263D2F54</title>
    <desc>Created with sketchtool.</desc>
    <defs></defs>
    <g id="Page-1" stroke="none" stroke-width="1" fill="none" fill-rule="evenodd">
        <g id="Bottom-Bar-Diagnostics-Visible" transform="translate(-807.000000, -749.000000)" fill="#FFFFFF">
            <g id="Inspection" transform="translate(0.000000, 675.000000)">
                <g id="Error-Navigation" transform="translate(695.000000, 61.000000)">
                    <g id="Arrow-Right" transform="translate(116.000000, 19.500000) rotate(-90.000000) translate(-116.000000, -19.500000) translate(110.000000, 16.000000)">
                        <path d="M11.6055882,0.3276 C12.0435882,0.7623 12.0435882,1.469125 11.6055882,1.90365 C11.1651176,2.340275 10.4548235,2.340275 10.0131176,1.90365 C9.57529412,1.4693 9.57529412,0.762475 10.0131176,0.3276 C10.4546471,-0.1092 11.1651176,-0.107975 11.6055882,0.3276 L11.6055882,0.3276 L11.6055882,0.3276 Z" id="Shape"></path>
                        <path d="M9.19852941,2.711625 C9.63917647,3.147025 9.63917647,3.85385 9.19852941,4.2896 C8.76052941,4.724125 8.04776471,4.724125 7.60852941,4.2896 C7.17052941,3.854025 7.17052941,3.1472 7.60852941,2.711625 C8.04776471,2.27605 8.76052941,2.27605 9.19852941,2.711625 L9.19852941,2.711625 L9.19852941,2.711625 Z" id="Shape"></path>
                        <path d="M6.795,5.096525 C7.23423529,5.5321 7.23423529,6.2384 6.795,6.674325 C6.35576471,7.1085 5.64282353,7.1085 5.20464706,6.674325 C4.76558824,6.238575 4.76558824,5.532275 5.20464706,5.096525 C5.64282353,4.66095 6.35576471,4.66095 6.795,5.096525 L6.795,5.096525 L6.795,5.096525 Z" id="Shape"></path>
                        <path d="M6.795,0.3276 C7.23423529,0.7623 7.23423529,1.469125 6.795,1.90365 C6.35576471,2.340275 5.64282353,2.340275 5.20464706,1.90365 C4.76558824,1.4693 4.76558824,0.762475 5.20464706,0.3276 C5.64282353,-0.1092 6.35576471,-0.1092 6.795,0.3276 L6.795,0.3276 L6.795,0.3276 Z" id="Shape"></path>
                        <path d="M4.38988235,2.711625 C4.82911765,3.147025 4.82911765,3.85385 4.38988235,4.2896 C3.95082353,4.724125 3.23805882,4.724125 2.799,4.2896 C2.35994118,3.854025 2.35994118,3.1472 2.799,2.711625 C3.23805882,2.27605 3.95082353,2.27605 4.38988235,2.711625 L4.38988235,2.711625 L4.38988235,2.711625 Z" id="Shape"></path>
                        <path d="M1.98441176,0.3276 C2.42382353,0.7623 2.42382353,1.469125 1.98441176,1.90365 C1.54623529,2.340275 0.833470588,2.340275 0.395294118,1.90365 C-0.0439411765,1.4693 -0.0439411765,0.762475 0.395294118,0.3276 C0.833470588,-0.1092 1.54623529,-0.1092 1.98441176,0.3276 L1.98441176,0.3276 L1.98441176,0.3276 Z" id="Shape"></path>
                    </g>
                </g>
            </g>
        </g>
    </g>
</svg>