<?xml version="1.0" encoding="UTF-8" standalone="no"?>
<svg width="21px" height="19px" viewBox="0 0 21 19" version="1.1" xmlns="http://www.w3.org/2000/svg" xmlns:xlink="http://www.w3.org/1999/xlink">
    <!-- Generator: sketchtool 40.3 (33839) - http://www.bohemiancoding.com/sketch -->
    <title>5EE28DCA-FCCB-4050-8738-0E69AE158FB3</title>
    <desc>Created with sketchtool.</desc>
    <defs></defs>
    <g id="Page-1" stroke="none" stroke-width="1" fill="none" fill-rule="evenodd">
        <g id="Bottom-Bar-Hoverstate-Diagnostic" transform="translate(-889.000000, -951.000000)" fill="#FDFFFC">
            <g id="DevTools" transform="translate(847.000000, 947.000000)">
                <g id="Status-Messages">
                    <g id="Tool-Container---On-Hover">
                        <g id="Badge---Warning" transform="translate(37.000000, 0.000000)">
                            <g id="Warning-Icon" transform="translate(5.000000, 4.000000)">
                                <path d="M0.644849538,18.9999829 C0.514076788,18.9986859 0.393718543,18.9281959 0.328335365,18.8146105 C0.265010777,18.7046158 0.265010777,18.5690966 0.328335365,18.4591018 L10.0617792,0.500832842 C10.1297389,0.38487631 10.2543088,0.314181863 10.3884218,0.315460439 C10.5198039,0.319351403 10.6405218,0.38893867 10.7100002,0.500832842 L20.4409119,18.4591018 C20.5047635,18.5689544 20.5047635,18.704758 20.4409119,18.8146105 C20.3729522,18.9305671 20.2483824,19.0012615 20.1142693,18.9999829 L0.644849538,18.9999829 L0.644849538,18.9999829 Z M1.26774943,18.2610327 L19.4989658,18.2610327 L10.3833576,1.45308834 L1.26774943,18.2610327 Z M10.9834685,15.5033008 C10.9896451,15.769584 10.8344531,16.0131123 10.5908914,16.1193353 C10.3473296,16.2255583 10.063885,16.1733298 9.87388367,15.9872168 C9.68388232,15.8011039 9.62514863,15.5181568 9.72530963,15.2714678 C9.82547062,15.0247787 10.0645868,14.8634571 10.3301832,14.8633851 C10.6856819,14.8619304 10.9765551,15.1468508 10.9834685,15.5033008 L10.9834685,15.5033008 Z M10.3301832,13.4413502 C10.2301916,13.4448129 10.1331216,13.4072028 10.0614253,13.3372189 C9.98972892,13.2672351 9.9496166,13.1709396 9.95036621,13.0706054 L9.95036621,6.69938128 C9.95030697,6.59948694 9.99072248,6.50385565 10.0623407,6.43442686 C10.133959,6.36499807 10.2306327,6.32773118 10.3301832,6.33117583 C10.5361893,6.32834169 10.7058434,6.49280925 10.7100002,6.69938128 L10.7100002,13.0706054 C10.7086661,13.1702829 10.6678981,13.2653453 10.5966666,13.3348754 C10.5254351,13.4044055 10.4295765,13.4427063 10.3301832,13.4413502 L10.3301832,13.4413502 Z" id="Shape"></path>
                            </g>
                        </g>
                    </g>
                </g>
            </g>
        </g>
    </g>
</svg>