<?xml version="1.0" encoding="UTF-8" standalone="no"?>
<svg width="21px" height="21px" viewBox="0 0 21 21" version="1.1" xmlns="http://www.w3.org/2000/svg" xmlns:xlink="http://www.w3.org/1999/xlink">
    <!-- Generator: sketchtool 40.3 (33839) - http://www.bohemiancoding.com/sketch -->
    <title>20844674-1794-4C3E-8F57-FF1F8F63FDCE</title>
    <desc>Created with sketchtool.</desc>
    <defs></defs>
    <g id="Page-1" stroke="none" stroke-width="1" fill="none" fill-rule="evenodd">
        <g id="Bottom-Bar-Hoverstate-Diagnostic" transform="translate(-852.000000, -974.000000)" fill="#FDFFFC">
            <g id="DevTools" transform="translate(847.000000, 947.000000)">
                <g id="Status-Messages">
                    <g id="Tool-Container---On-Hover">
                        <g id="Badge---Error" transform="translate(0.000000, 22.000000)">
                            <g id="Error-Icon" transform="translate(5.000000, 5.000000)">
                                <path d="M10.5,0 C4.70666318,0 0,4.70665841 0,10.5 C0,16.2933273 4.70666318,21 10.5,21 C16.2933368,21 21,16.2933273 21,10.5 C21,4.70665841 16.2933368,0 10.5,0 L10.5,0 Z M10.5,0.954545455 C15.7774613,0.954545455 20.0454545,5.22253295 20.0454545,10.5 C20.0454545,15.777467 15.7774613,20.0454545 10.5,20.0454545 C5.22253868,20.0454545 0.954545455,15.777467 0.954545455,10.5 C0.954545455,5.22253295 5.22253868,0.954545455 10.5,0.954545455 L10.5,0.954545455 Z M6.39098011,5.9584517 C6.20519962,5.97653212 6.04700423,6.10124531 5.98605654,6.27767284 C5.92510885,6.45410036 5.97259318,6.64986655 6.10759943,6.7787642 L9.82883523,10.5 L6.10759943,14.2137784 C5.98241453,14.3328323 5.93132953,14.5102367 5.97402858,14.6776341 C6.01672763,14.8450314 6.14654566,14.9762919 6.31346098,15.0208379 C6.4803763,15.065384 6.65833441,15.0162624 6.7787642,14.8924006 L10.5,11.1711648 L14.2212358,14.8924006 C14.3416656,15.0162624 14.5196237,15.065384 14.686539,15.0208379 C14.8534543,14.9762919 14.9832724,14.8450314 15.0259714,14.6776341 C15.0686705,14.5102367 15.0175855,14.3328323 14.8924006,14.2137784 L11.1711648,10.5 L14.8924006,6.7787642 C15.0443001,6.63610053 15.0860914,6.41138444 14.9956372,6.2236494 C14.905183,6.03591437 14.7033941,5.92855965 14.4971591,5.9584517 C14.3919757,5.97364764 14.2948719,6.02351176 14.2212358,6.10014205 L10.5,9.82137784 L6.7787642,6.10014205 C6.67767066,5.99656098 6.53503831,5.94444531 6.39098011,5.9584517 L6.39098011,5.9584517 Z" id="Shape"></path>
                            </g>
                        </g>
                    </g>
                </g>
            </g>
        </g>
    </g>
</svg>