<?xml version="1.0" encoding="UTF-8" standalone="no"?>
<svg width="21px" height="21px" viewBox="0 0 21 21" version="1.1" xmlns="http://www.w3.org/2000/svg" xmlns:xlink="http://www.w3.org/1999/xlink">
    <!-- Generator: sketchtool 40.3 (33839) - http://www.bohemiancoding.com/sketch -->
    <title>9A1F36BD-C18F-41CE-8842-255465C98D85</title>
    <desc>Created with sketchtool.</desc>
    <defs></defs>
    <g id="Page-1" stroke="none" stroke-width="1" fill="none" fill-rule="evenodd">
        <g id="Bottom-Bar-Hoverstate-Diagnostic" transform="translate(-927.000000, -974.000000)" fill="#FDFFFC">
            <g id="DevTools" transform="translate(847.000000, 947.000000)">
                <g id="Status-Messages">
                    <g id="Tool-Container---On-Hover">
                        <g id="Badge---Info" transform="translate(75.000000, 22.000000)">
                            <g id="Info-Icon" transform="translate(5.000000, 5.000000)">
                                <path d="M10.5276316,20.8894737 C4.80789474,20.8894737 0.138157895,16.2473684 0.138157895,10.5 C0.138157895,4.75263158 4.78026316,0.110526316 10.5276316,0.110526316 C16.275,0.110526316 20.8894737,4.75263158 20.8894737,10.5 C20.8894737,16.2473684 16.2473684,20.8894737 10.5276316,20.8894737 L10.5276316,20.8894737 Z M10.5276316,0.994736842 C5.27763158,0.994736842 1.02236842,5.25 1.02236842,10.5 C1.02236842,15.75 5.27763158,20.0052632 10.5276316,20.0052632 C15.7776316,20.0052632 20.0328947,15.75 20.0328947,10.5 C20.0328947,5.27763158 15.7776316,0.994736842 10.5276316,0.994736842 L10.5276316,0.994736842 Z" id="Shape"></path>
                                <g id="Group" transform="translate(8.565789, 5.250000)">
                                    <ellipse id="Oval" cx="1.96184211" cy="0.939473684" rx="0.856578947" ry="0.856578947"></ellipse>
                                    <polygon id="Shape" points="2.40394737 10.0302632 1.54736842 10.0302632 1.54736842 4.39342105 0.248684211 4.39342105 0.248684211 3.53684211 2.40394737 3.53684211"></polygon>
                                    <rect id="Rectangle-path" x="0.248684211" y="9.58815789" width="3.45394737" height="0.856578947"></rect>
                                </g>
                            </g>
                        </g>
                    </g>
                </g>
            </g>
        </g>
    </g>
</svg>