<?xml version="1.0" encoding="UTF-8" standalone="no"?>
<svg width="19px" height="19px" viewBox="0 0 19 19" version="1.1" xmlns="http://www.w3.org/2000/svg" xmlns:xlink="http://www.w3.org/1999/xlink">
    <!-- Generator: sketchtool 40.3 (33839) - http://www.bohemiancoding.com/sketch -->
    <title>10E88B42-4BD5-412B-886C-7F35F07BC358</title>
    <desc>Created with sketchtool.</desc>
    <defs></defs>
    <g id="Page-1" stroke="none" stroke-width="1" fill="none" fill-rule="evenodd">
        <g id="Bottom-Bar-Hoverstate-Diagnostic" transform="translate(-918.000000, -1043.000000)" fill="#FFFFFF">
            <g id="DevTools" transform="translate(847.000000, 947.000000)">
                <g id="Status-Messages">
                    <g id="Tool-Container---On-Hover">
                        <g id="Tool-Title" transform="translate(7.000000, 92.000000)">
                            <g id="Settings" transform="translate(57.000000, 0.000000)">
                                <g id="Settings-Icon" transform="translate(7.000000, 4.000000)">
                                    <path d="M18.3597826,7.43478261 C17.9467391,7.39347826 17.5130435,7.35217391 17.0173913,7.33152174 C16.8521739,6.77391304 16.625,6.23695652 16.3565217,5.72065217 C16.6869565,5.34891304 16.976087,4.99782609 17.223913,4.68804348 C17.3684783,4.50217391 17.3891304,4.25434783 17.2445652,4.06847826 C16.6043478,3.15978261 15.8195652,2.375 14.9315217,1.75543478 C14.7456522,1.61086957 14.4771739,1.63152174 14.3119565,1.77608696 C14.0021739,2.02391304 13.651087,2.33369565 13.2793478,2.64347826 C12.7630435,2.35434783 12.226087,2.14782609 11.6684783,1.9826087 C11.6478261,1.48695652 11.6065217,1.0326087 11.5652174,0.640217391 C11.5445652,0.413043478 11.3586957,0.227173913 11.1315217,0.185869565 C10.0369565,-4.35484981e-14 8.9423913,-4.35484981e-14 7.84782609,0.185869565 C7.62065217,0.227173913 7.43478261,0.413043478 7.41413043,0.640217391 C7.37282609,1.0326087 7.33152174,1.48695652 7.31086957,1.9826087 C6.75326087,2.14782609 6.21630435,2.375 5.7,2.64347826 C5.32826087,2.31304348 4.97717391,2.02391304 4.6673913,1.77608696 C4.48152174,1.63152174 4.23369565,1.61086957 4.04782609,1.75543478 C3.13913043,2.39565217 2.35434783,3.18043478 1.73478261,4.06847826 C1.59021739,4.25434783 1.61086957,4.52282609 1.75543478,4.68804348 C2.00326087,4.99782609 2.31304348,5.34891304 2.62282609,5.72065217 C2.33369565,6.23695652 2.12717391,6.77391304 1.96195652,7.33152174 C1.48695652,7.35217391 1.0326087,7.39347826 0.640217391,7.43478261 C0.413043478,7.45543478 0.227173913,7.64130435 0.185869565,7.86847826 C0.0826086957,8.42608696 0.0413043478,8.96304348 0.0413043478,9.5 C0.0413043478,10.0369565 0.0826086957,10.5945652 0.185869565,11.1315217 C0.227173913,11.3586957 0.413043478,11.5445652 0.640217391,11.5652174 C1.0326087,11.6065217 1.48695652,11.6478261 1.9826087,11.6684783 C2.14782609,12.226087 2.375,12.7630435 2.64347826,13.2793478 C2.31304348,13.651087 2.02391304,14.0021739 1.77608696,14.3119565 C1.63152174,14.4978261 1.61086957,14.7456522 1.75543478,14.9315217 C2.39565217,15.8402174 3.18043478,16.625 4.06847826,17.2445652 C4.25434783,17.3891304 4.52282609,17.3684783 4.68804348,17.223913 C4.99782609,16.9554348 5.34891304,16.6663043 5.72065217,16.3565217 C6.23695652,16.6456522 6.77391304,16.8521739 7.33152174,17.0173913 C7.37282609,17.5130435 7.39347826,17.9673913 7.43478261,18.3597826 C7.45543478,18.5869565 7.64130435,18.7728261 7.86847826,18.8141304 C8.42608696,18.9173913 8.96304348,18.9586957 9.5,18.9586957 C10.0369565,18.9586957 10.5945652,18.9173913 11.1315217,18.8141304 C11.3586957,18.7728261 11.5445652,18.5869565 11.5652174,18.3597826 C11.6065217,17.9673913 11.6478261,17.5130435 11.6684783,17.0173913 C12.226087,16.8521739 12.7630435,16.625 13.2793478,16.3565217 C13.651087,16.6869565 14.0021739,16.976087 14.3119565,17.223913 C14.4978261,17.3684783 14.7456522,17.3891304 14.9315217,17.2445652 C15.8402174,16.6043478 16.625,15.8195652 17.2445652,14.9315217 C17.3891304,14.7456522 17.3684783,14.4771739 17.223913,14.3119565 C16.976087,14.0021739 16.6663043,13.651087 16.3565217,13.2793478 C16.6456522,12.7630435 16.8521739,12.226087 17.0173913,11.6684783 C17.5130435,11.6271739 17.9673913,11.6065217 18.3597826,11.5652174 C18.5869565,11.5445652 18.7728261,11.3586957 18.8141304,11.1315217 C18.9173913,10.573913 18.9586957,10.0369565 18.9586957,9.5 C18.9586957,8.96304348 18.9173913,8.40543478 18.8141304,7.86847826 C18.7934783,7.62065217 18.6076087,7.45543478 18.3597826,7.43478261 L18.3597826,7.43478261 Z M17.8641304,10.573913 C17.4717391,10.6152174 17.0380435,10.6358696 16.5836957,10.6565217 C16.3565217,10.6771739 16.1706522,10.8423913 16.1086957,11.048913 C15.9434783,11.751087 15.6543478,12.4326087 15.2826087,13.0521739 C15.1586957,13.2380435 15.1793478,13.5065217 15.3445652,13.6717391 C15.6543478,14.0228261 15.9434783,14.3532609 16.1913043,14.6423913 C15.7576087,15.2 15.2413043,15.7163043 14.6836957,16.15 C14.3945652,15.9021739 14.0641304,15.6130435 13.7130435,15.3032609 C13.5478261,15.1586957 13.2793478,15.1380435 13.0934783,15.2413043 C12.473913,15.6336957 11.7923913,15.9021739 11.0902174,16.0673913 C10.8630435,16.1293478 10.6978261,16.3152174 10.6978261,16.5423913 C10.6771739,16.9967391 10.6358696,17.4304348 10.6152174,17.8228261 C9.8923913,17.9054348 9.19021739,17.9054348 8.4673913,17.8228261 C8.42608696,17.4304348 8.40543478,16.9967391 8.38478261,16.5423913 C8.36413043,16.3152174 8.19891304,16.1293478 7.9923913,16.0673913 C7.29021739,15.9021739 6.60869565,15.6130435 5.98913043,15.2413043 C5.80326087,15.1173913 5.53478261,15.1380435 5.36956522,15.3032609 C5.01847826,15.6130435 4.68804348,15.9021739 4.39891304,16.15 C3.84130435,15.7163043 3.325,15.2 2.89130435,14.6423913 C3.13913043,14.3532609 3.42826087,14.0228261 3.73804348,13.6717391 C3.8826087,13.5065217 3.90326087,13.2586957 3.8,13.0521739 C3.4076087,12.4326087 3.13913043,11.751087 2.97391304,11.048913 C2.91195652,10.8217391 2.72608696,10.6565217 2.49891304,10.6565217 C2.04456522,10.6358696 1.61086957,10.5945652 1.21847826,10.573913 C1.17717391,10.2228261 1.15652174,9.85108696 1.15652174,9.5 C1.15652174,9.14891304 1.17717391,8.79782609 1.21847826,8.42608696 C1.61086957,8.38478261 2.04456522,8.36413043 2.49891304,8.34347826 C2.72608696,8.32282609 2.91195652,8.1576087 2.97391304,7.95108696 C3.13913043,7.24891304 3.42826087,6.5673913 3.8,5.94782609 C3.92391304,5.76195652 3.90326087,5.49347826 3.73804348,5.32826087 C3.42826087,4.97717391 3.13913043,4.64673913 2.89130435,4.3576087 C3.325,3.8 3.84130435,3.28369565 4.39891304,2.85 C4.68804348,3.09782609 5.01847826,3.38695652 5.36956522,3.69673913 C5.53478261,3.84130435 5.7826087,3.86195652 5.98913043,3.75869565 C6.60869565,3.36630435 7.29021739,3.09782609 7.9923913,2.9326087 C8.21956522,2.87065217 8.38478261,2.68478261 8.38478261,2.4576087 C8.40543478,2.00326087 8.44673913,1.56956522 8.4673913,1.17717391 C9.19021739,1.09456522 9.8923913,1.09456522 10.6152174,1.17717391 C10.6565217,1.56956522 10.6771739,2.00326087 10.6978261,2.4576087 C10.7184783,2.68478261 10.8836957,2.87065217 11.0902174,2.9326087 C11.7923913,3.09782609 12.473913,3.38695652 13.0934783,3.75869565 C13.2793478,3.8826087 13.5478261,3.86195652 13.7130435,3.69673913 C14.0641304,3.38695652 14.3945652,3.09782609 14.6836957,2.85 C15.2413043,3.28369565 15.7576087,3.8 16.1913043,4.3576087 C15.9434783,4.64673913 15.6543478,4.97717391 15.3445652,5.32826087 C15.2,5.49347826 15.1793478,5.76195652 15.2826087,5.94782609 C15.675,6.5673913 15.9434783,7.24891304 16.1086957,7.95108696 C16.1706522,8.17826087 16.3565217,8.34347826 16.5836957,8.34347826 C17.0380435,8.36413043 17.4717391,8.40543478 17.8641304,8.42608696 C17.9054348,8.77717391 17.926087,9.14891304 17.926087,9.5 C17.926087,9.85108696 17.9054348,10.2021739 17.8641304,10.573913 L17.8641304,10.573913 Z" id="Shape"></path>
                                    <path d="M9.5,4.275 C6.62934783,4.275 4.275,6.60869565 4.275,9.5 C4.275,12.3706522 6.60869565,14.725 9.5,14.725 C12.3706522,14.725 14.725,12.3913043 14.725,9.5 C14.725,6.62934783 12.3706522,4.275 9.5,4.275 L9.5,4.275 Z M9.5,13.6717391 C7.2076087,13.6717391 5.32826087,11.7923913 5.32826087,9.5 C5.32826087,7.2076087 7.2076087,5.32826087 9.5,5.32826087 C11.7923913,5.32826087 13.6717391,7.2076087 13.6717391,9.5 C13.6717391,11.7923913 11.7923913,13.6717391 9.5,13.6717391 L9.5,13.6717391 Z" id="Shape"></path>
                                </g>
                            </g>
                        </g>
                    </g>
                </g>
            </g>
        </g>
    </g>
</svg>